<?xml version="1.0" encoding="utf-8"?>
<!-- Generator: Adobe Illustrator 13.0.2, SVG Export Plug-In . SVG Version: 6.00 Build 14948)  -->
<svg version="1.2" baseProfile="tiny" id="Layer_1" xmlns="http://www.w3.org/2000/svg" xmlns:xlink="http://www.w3.org/1999/xlink"
	 x="0px" y="0px" width="94.9px" height="202.2px" viewBox="36 113 94.9 202.2" xml:space="preserve">
<text transform="matrix(1 0 0 1 35.95 143.8398)" font-family="'MyriadWebPro-Bold'" font-size="36">10:42</text>
<text transform="matrix(1 0 0 1 65.5432 219.3599)" font-family="'MyriadWebPro'" font-size="28">11:05</text>
<text transform="matrix(1 0 0 1 65.5432 248.4419)" font-family="'MyriadWebPro'" font-size="28">12:22</text>
<text transform="matrix(1 0 0 1 59.7468 189.6001)" font-family="'MyriadWebPro-Bold'" font-size="28">10:46</text>
<text transform="matrix(1 0 0 1 92.114 308.6001)" font-family="'MyriadWebPro'" font-size="28">42°</text>
<text transform="matrix(1 0 0 1 92.114 281.6001)" font-family="'MyriadWebPro'" font-size="28">66°</text>
<polygon points="84.5,276.3 88,270.2 91.5,276.3 "/>
<path d="M88.9,304.4v-2.8V295v-2.6c0-0.7-0.6-1.3-1.3-1.3c-0.7,0-1.3,0.6-1.3,1.3v2.6v6.6v2.8c-0.8,0.4-1.3,1.3-1.3,2.2
	c0,1.4,1.2,2.6,2.6,2.6c1.4,0,2.6-1.2,2.6-2.6C90.2,305.7,89.7,304.8,88.9,304.4z"/>
<polyline fill="none" stroke="#000000" stroke-width="2" points="52.3,188.6 52.3,192.1 41.4,192.1 41.4,168.6 52.3,168.6 
	52.3,174.6 "/>
<polygon points="50.5,186.4 59.5,181.9 50.5,177.4 "/>
<polyline points="45.5,183.4 45.5,180.4 52.5,180.4 52.5,183.4 "/>
<g>
	<path d="M40.9,202.3c0,0,9-5,17,0v16h-1v4h-2v-4h-11v4h-2v-4h-1V202.3z"/>
	<rect x="43.9" y="204.3" fill="#FFFFFF" width="11" height="5"/>
	<rect x="43.9" y="215.3" fill="#FFFFFF" width="1" height="1"/>
	<rect x="53.9" y="215.3" fill="#FFFFFF" width="1" height="1"/>
</g>
<g>
	<path d="M40.9,231.3c0,0,9-5,17,0v16h-1v4h-2v-4h-11v4h-2v-4h-1V231.3z"/>
	<rect x="43.9" y="233.3" fill="#FFFFFF" width="11" height="5"/>
	<rect x="43.9" y="244.3" fill="#FFFFFF" width="1" height="1"/>
	<rect x="53.9" y="244.3" fill="#FFFFFF" width="1" height="1"/>
</g>
<g>
	<path d="M80.9,287.1c0,0.9-0.7,1.7-1.7,1.7h-3.3c-0.9,0-1.7-0.7-1.7-1.7l0,0c0-0.9,0.7-1.7,1.7-1.7h3.3
		C80.1,285.5,80.9,286.2,80.9,287.1L80.9,287.1z"/>
	<path d="M46.2,287.1c0,0.9-0.7,1.7-1.7,1.7h-3.3c-0.9,0-1.7-0.7-1.7-1.7l0,0c0-0.9,0.7-1.7,1.7-1.7h3.3
		C45.4,285.5,46.2,286.2,46.2,287.1L46.2,287.1z"/>
	<path d="M59.9,301.1c0.9,0,1.7,0.7,1.7,1.7v3.3c0,0.9-0.7,1.7-1.7,1.7l0,0c-0.9,0-1.7-0.7-1.7-1.7v-3.3
		C58.2,301.9,58.9,301.1,59.9,301.1L59.9,301.1z"/>
	<path d="M60.6,266.1c0.9,0,1.7,0.7,1.7,1.7v3.3c0,0.9-0.7,1.7-1.7,1.7l0,0c-0.9,0-1.7-0.7-1.7-1.7v-3.3
		C58.9,266.9,59.6,266.1,60.6,266.1L60.6,266.1z"/>
	<path d="M44.4,270.4c0.6-0.6,1.7-0.6,2.3,0l2.4,2.4c0.6,0.6,0.6,1.7,0,2.3l0,0c-0.6,0.6-1.7,0.6-2.3,0l-2.4-2.4
		C43.9,272.2,43.9,271.1,44.4,270.4L44.4,270.4z"/>
	<path d="M70.9,297.6c0.6-0.6,1.7-0.6,2.3,0l2.4,2.4c0.6,0.6,0.6,1.7,0,2.3l0,0c-0.6,0.6-1.7,0.6-2.3,0l-2.4-2.4
		C70.4,299.3,70.4,298.3,70.9,297.6L70.9,297.6z"/>
	<path d="M44.2,302c-0.6-0.6-0.6-1.7,0-2.3l2.4-2.4c0.6-0.6,1.7-0.6,2.3,0l0,0c0.6,0.6,0.6,1.7,0,2.3l-2.4,2.4
		C45.9,302.6,44.7,302.6,44.2,302L44.2,302z"/>
	<path d="M71.4,275.5c-0.6-0.6-0.6-1.7,0-2.3l2.4-2.4c0.6-0.6,1.7-0.6,2.3,0l0,0c0.6,0.6,0.6,1.7,0,2.3l-2.4,2.4
		C73.1,276.2,71.9,276.2,71.4,275.5L71.4,275.5z"/>
	<circle cx="60.4" cy="286.1" r="10"/>
	<circle fill="#FFFFFF" cx="60.4" cy="286.4" r="6.2"/>
</g>
<text transform="matrix(1 0 0 1 41.95 157.54)" font-family="'MyriadWebPro'" font-size="16">W</text>
<text transform="matrix(1 0 0 1 55.3259 157.54)" font-family="'MyriadWebPro'" font-size="16">e</text>
<text transform="matrix(1 0 0 1 63.6296 157.54)" font-family="'MyriadWebPro'" font-size="16">d</text>
<text transform="matrix(1 0 0 1 72.99 157.54)" font-family="'MyriadWebPro'" font-size="16"> </text>
<text transform="matrix(1 0 0 1 76.4773 157.54)" font-family="'MyriadWebPro'" font-size="16">1</text>
<text transform="matrix(1 0 0 1 84.9734 157.54)" font-family="'MyriadWebPro'" font-size="16">1</text>
<text transform="matrix(1 0 0 1 93.4695 157.54)" font-family="'MyriadWebPro'" font-size="16"> </text>
<text transform="matrix(1 0 0 1 96.9568 157.54)" font-family="'MyriadWebPro'" font-size="16">M</text>
<text transform="matrix(1 0 0 1 110.3484 157.54)" font-family="'MyriadWebPro'" font-size="16">a</text>
<text transform="matrix(1 0 0 1 118.1414 157.54)" font-family="'MyriadWebPro'" font-size="16">y</text>
</svg>
