<svg version="1.1" viewBox="0 0 96 200" height="200" width="96" xmlns="http://www.w3.org/2000/svg" xmlns:xlink="http://www.w3.org/1999/xlink">
    <defs>
        <style type="text/css">
            text {font-family: 'MyriadWebPro'; }
            text.b { font-family: 'MyriadWebPro-Bold'; }
            .t36 { font-size: 36px; }
            .t28 { font-size: 28px; }
            .t28r { font-size: 28px; text-anchor:end; }
            .t16 { font-size: 16px; }
        </style>
        <symbol id="out_the_door">
            <polyline fill="none" stroke="#000000" stroke-width="2"
                      points="11.9,21 11.9,24.5 1,24.5 1,1 11.9,1 11.9,7 "/>
            <polygon points="9.9,19 18.9,14.5 9.9,10 "/>
            <polyline points="4.9,16 4.9,13 11.9,13 11.9,16 "/>
        </symbol>
        <symbol id="bus">
            <path d="M0,2.2c0,0,9-5,17,0v16h-1v4h-2v-4H3v4H1v-4H0V2.2z"/>
            <rect x="3" y="4.2" fill="#FFFFFF" width="11" height="5"/>
            <rect x="3" y="15.2" fill="#FFFFFF" width="1" height="1"/>
            <rect x="13" y="15.2" fill="#FFFFFF" width="1" height="1"/>
        </symbol>
        <symbol id="sun">
            <path d="M41.3,21c0,0.9-0.7,1.7-1.7,1.7h-3.3c-0.9,0-1.7-0.7-1.7-1.7v0c0-0.9,0.7-1.7,1.7-1.7h3.3C40.6,19.3,41.3,20.1,41.3,21 L41.3,21z"/>
            <path d="M6.7,21c0,0.9-0.7,1.7-1.7,1.7H1.7C0.7,22.7,0,21.9,0,21v0c0-0.9,0.7-1.7,1.7-1.7H5C5.9,19.3,6.7,20.1,6.7,21L6.7,21z"/>
            <path d="M20.3,35c0.9,0,1.7,0.7,1.7,1.7V40c0,0.9-0.7,1.7-1.7,1.7h0c-0.9,0-1.7-0.7-1.7-1.7v-3.3C18.7,35.7,19.4,35,20.3,35 L20.3,35z"/>
            <path d="M21,0c0.9,0,1.7,0.7,1.7,1.7V5c0,0.9-0.7,1.7-1.7,1.7h0c-0.9,0-1.7-0.7-1.7-1.7V1.7C19.3,0.7,20.1,0,21,0L21,0z"/>
            <path d="M5,4.3c0.6-0.6,1.7-0.6,2.3,0l2.4,2.4c0.6,0.6,0.6,1.7,0,2.3l0,0C9,9.7,8,9.7,7.3,9L5,6.7C4.3,6,4.3,5,5,4.3L5,4.3z"/>
            <path d="M31.5,31.5c0.6-0.6,1.7-0.6,2.3,0l2.4,2.4c0.6,0.6,0.6,1.7,0,2.3l0,0c-0.6,0.6-1.7,0.6-2.3,0l-2.4-2.4 C30.8,33.2,30.8,32.1,31.5,31.5L31.5,31.5z"/>
            <path d="M4.6,35.9c-0.6-0.6-0.6-1.7,0-2.3L7,31.1c0.6-0.6,1.7-0.6,2.3,0l0,0c0.6,0.6,0.6,1.7,0,2.3L7,35.9 C6.3,36.5,5.3,36.5,4.6,35.9L4.6,35.9z"/>
            <path d="M31.8,9.4c-0.6-0.6-0.6-1.7,0-2.3l2.4-2.4c0.6-0.6,1.7-0.6,2.3,0l0,0c0.6,0.6,0.6,1.7,0,2.3l-2.4,2.4 C33.5,10,32.5,10,31.8,9.4L31.8,9.4z"/>
            <circle cx="21" cy="20" r="10"/>
            <circle fill="#FFFFFF" cx="20.9" cy="20.3" r="6.2"/>
        </symbol>
        <symbol id="therm">
            <circle cx="2.5" cy="13.5" r="2.5"/>
            <path d="M4,2.2C4,1.5,3.3,0,2.5,0l0,0C1.7,0,1,1.5,1,2.2v9.3c0,0.6,0.7,1.2,1.5,1.2l0,0c0.8,0,1.5-0.5,1.5-1.2V2.2z"/>
        </symbol>
        <symbol id="uptri">
            <polygon points="0,6 3.5,0 7,6 "/>
        </symbol>
    </defs>

    <g> <!-- time/date -->
        <text x="0" y="28" class="t36 b">10:42</text>
        <text x="7" y="44" class="t16">Wed 11 May</text>
    </g>
    <g> <!-- bus 1 -->
        <text x="96" y="75" class="t28r b">10:46</text>
        <use x="6.5" y="55" xlink:href="#out_the_door"/>
    </g>
    <g> <!-- bus 2 -->
        <text x="96" y="106" class="t28r">11:05</text>
        <use x="6" y="86.5" xlink:href="#bus"/>
    </g>
    <g> <!-- bus 3 -->
        <text x="96" y="136" class="t28r">12:22</text>
        <use x="6" y="115.5" xlink:href="#bus"/>
    </g>

    <g><!-- weather -->
        <use x="4.5" y="152.5" xlink:href ="#sun"/>
        <use x="49.5" y="156.5" xlink:href="#uptri"/> <text x="96" y="169" class="t28r">66°</text>
        <use x="50" y="177.5" xlink:href="#therm"/> <text x="96" y="196" class="t28r">42°</text>
    </g>
</svg>
