<?xml version="1.0" encoding="UTF-8"?><svg xmlns="http://www.w3.org/2000/svg" xmlns:xlink="http://www.w3.org/1999/xlink" fill-opacity="1" color-rendering="auto" color-interpolation="auto" text-rendering="auto" stroke="black" stroke-linecap="square" width="1120" stroke-miterlimit="10" shape-rendering="auto" stroke-opacity="1" fill="black" stroke-dasharray="none" font-weight="normal" stroke-width="1" height="990" font-family="'Dialog'" font-style="normal" stroke-linejoin="miter" font-size="12px" stroke-dashoffset="0" image-rendering="auto">
  <!--Generated by ySVG 2.5-->
  <defs id="genericDefs"/>
  <g>
    <defs id="defs1">
      <clipPath clipPathUnits="userSpaceOnUse" id="clipPath1">
        <path d="M0 0 L1120 0 L1120 990 L0 990 L0 0 Z"/>
      </clipPath>
      <clipPath clipPathUnits="userSpaceOnUse" id="clipPath2">
        <path d="M-282 -347 L838 -347 L838 643 L-282 643 L-282 -347 Z"/>
      </clipPath>
    </defs>
    <g fill="rgb(255,204,0)" text-rendering="geometricPrecision" shape-rendering="geometricPrecision" transform="matrix(1,0,0,1,282,347)" stroke="rgb(255,204,0)">
      <path d="M109 572 L191 572 L150 628 Z" fill-rule="evenodd" clip-path="url(#clipPath2)" stroke="none"/>
    </g>
    <g text-rendering="geometricPrecision" stroke-miterlimit="1.45" shape-rendering="geometricPrecision" transform="matrix(1,0,0,1,282,347)" stroke-linecap="butt">
      <path fill="none" d="M109 572 L191 572 L150 628 Z" fill-rule="evenodd" clip-path="url(#clipPath2)"/>
      <text x="135.7998" xml:space="preserve" y="596.2878" clip-path="url(#clipPath2)" font-family="sans-serif" stroke="none">IGBT</text>
    </g>
    <g fill="rgb(255,204,0)" text-rendering="geometricPrecision" shape-rendering="geometricPrecision" transform="matrix(1,0,0,1,282,347)" stroke="rgb(255,204,0)">
      <path d="M254 572 L336 572 L295 628 Z" fill-rule="evenodd" clip-path="url(#clipPath2)" stroke="none"/>
    </g>
    <g text-rendering="geometricPrecision" stroke-miterlimit="1.45" shape-rendering="geometricPrecision" transform="matrix(1,0,0,1,282,347)" stroke-linecap="butt">
      <path fill="none" d="M254 572 L336 572 L295 628 Z" fill-rule="evenodd" clip-path="url(#clipPath2)"/>
      <text x="278.2451" xml:space="preserve" y="596.2878" clip-path="url(#clipPath2)" font-family="sans-serif" stroke="none">Relay</text>
    </g>
    <g fill="rgb(255,204,0)" text-rendering="geometricPrecision" shape-rendering="geometricPrecision" transform="matrix(1,0,0,1,282,347)" stroke="rgb(255,204,0)">
      <rect x="107" width="229" height="64" y="438" clip-path="url(#clipPath2)" stroke="none"/>
    </g>
    <g text-rendering="geometricPrecision" stroke-miterlimit="1.45" shape-rendering="geometricPrecision" transform="matrix(1,0,0,1,282,347)" stroke-linecap="butt">
      <rect fill="none" x="107" width="229" height="64" y="438" clip-path="url(#clipPath2)"/>
      <text x="192.2441" xml:space="preserve" y="474.1543" clip-path="url(#clipPath2)" font-family="sans-serif" stroke="none">HwSwitch</text>
    </g>
    <g fill="rgb(255,204,0)" text-rendering="geometricPrecision" shape-rendering="geometricPrecision" transform="matrix(1,0,0,1,282,347)" stroke="rgb(255,204,0)">
      <rect x="107" width="229" height="64" y="298" clip-path="url(#clipPath2)" stroke="none"/>
    </g>
    <g text-rendering="geometricPrecision" stroke-miterlimit="1.45" shape-rendering="geometricPrecision" transform="matrix(1,0,0,1,282,347)" stroke-linecap="butt">
      <rect fill="none" x="107" width="229" height="64" y="298" clip-path="url(#clipPath2)"/>
      <text x="179.2891" xml:space="preserve" y="334.1543" clip-path="url(#clipPath2)" font-family="sans-serif" stroke="none">SystemSwitch</text>
    </g>
    <g fill="rgb(255,204,0)" text-rendering="geometricPrecision" shape-rendering="geometricPrecision" transform="matrix(1,0,0,1,282,347)" stroke="rgb(255,204,0)">
      <rect x="107" width="229" height="64" y="158" clip-path="url(#clipPath2)" stroke="none"/>
    </g>
    <g text-rendering="geometricPrecision" stroke-miterlimit="1.45" shape-rendering="geometricPrecision" transform="matrix(1,0,0,1,282,347)" stroke-linecap="butt">
      <rect fill="none" x="107" width="229" height="64" y="158" clip-path="url(#clipPath2)"/>
      <text x="167.8076" xml:space="preserve" y="194.1543" clip-path="url(#clipPath2)" font-family="sans-serif" stroke="none">SwitchAggregator</text>
    </g>
    <g fill="rgb(255,204,0)" text-rendering="geometricPrecision" shape-rendering="geometricPrecision" transform="matrix(1,0,0,1,282,347)" stroke="rgb(255,204,0)">
      <rect x="110.75" width="229" height="64" y="38" clip-path="url(#clipPath2)" stroke="none"/>
    </g>
    <g text-rendering="geometricPrecision" stroke-miterlimit="1.45" shape-rendering="geometricPrecision" transform="matrix(1,0,0,1,282,347)" stroke-linecap="butt">
      <rect fill="none" x="110.75" width="229" height="64" y="38" clip-path="url(#clipPath2)"/>
      <text x="171.1797" xml:space="preserve" y="74.1543" clip-path="url(#clipPath2)" font-family="sans-serif" stroke="none">BehaviourHandler</text>
    </g>
    <g fill="rgb(255,204,0)" text-rendering="geometricPrecision" shape-rendering="geometricPrecision" transform="matrix(1,0,0,1,282,347)" stroke="rgb(255,204,0)">
      <rect x="110.75" width="229" height="64" y="-242" clip-path="url(#clipPath2)" stroke="none"/>
    </g>
    <g text-rendering="geometricPrecision" stroke-miterlimit="1.45" shape-rendering="geometricPrecision" transform="matrix(1,0,0,1,282,347)" stroke-linecap="butt">
      <rect fill="none" x="110.75" width="229" height="64" y="-242" clip-path="url(#clipPath2)"/>
      <text x="178.8145" xml:space="preserve" y="-205.8457" clip-path="url(#clipPath2)" font-family="sans-serif" stroke="none">BehaviourStore</text>
    </g>
    <g fill="rgb(255,204,0)" text-rendering="geometricPrecision" shape-rendering="geometricPrecision" transform="matrix(1,0,0,1,282,347)" stroke="rgb(255,204,0)">
      <rect x="320.25" width="229" height="64" y="-92" clip-path="url(#clipPath2)" stroke="none"/>
    </g>
    <g text-rendering="geometricPrecision" stroke-miterlimit="1.45" shape-rendering="geometricPrecision" transform="matrix(1,0,0,1,282,347)" stroke-linecap="butt">
      <rect fill="none" x="320.25" width="229" height="64" y="-92" clip-path="url(#clipPath2)"/>
      <text x="418.8682" xml:space="preserve" y="-55.8457" clip-path="url(#clipPath2)" font-family="sans-serif" stroke="none">State</text>
    </g>
    <g fill="rgb(255,204,0)" text-rendering="geometricPrecision" shape-rendering="geometricPrecision" transform="matrix(1,0,0,1,282,347)" stroke="rgb(255,204,0)">
      <rect x="-250.25" width="229" height="64" y="-332" clip-path="url(#clipPath2)" stroke="none"/>
    </g>
    <g text-rendering="geometricPrecision" stroke-miterlimit="1.45" shape-rendering="geometricPrecision" transform="matrix(1,0,0,1,282,347)" stroke-linecap="butt">
      <rect fill="none" x="-250.25" width="229" height="64" y="-332" clip-path="url(#clipPath2)"/>
      <text x="-190.2129" xml:space="preserve" y="-295.8457" clip-path="url(#clipPath2)" font-family="sans-serif" stroke="none">CommandHandler</text>
    </g>
    <g fill="rgb(255,204,0)" text-rendering="geometricPrecision" shape-rendering="geometricPrecision" transform="matrix(1,0,0,1,282,347)" stroke="rgb(255,204,0)">
      <rect x="515.5" width="229" height="64" y="-242" clip-path="url(#clipPath2)" stroke="none"/>
    </g>
    <g stroke-linecap="butt" transform="matrix(1,0,0,1,282,347)" fill="red" text-rendering="geometricPrecision" shape-rendering="geometricPrecision" stroke="red" stroke-miterlimit="1.45">
      <rect fill="none" x="515.5" width="229" height="64" y="-242" clip-path="url(#clipPath2)"/>
      <text x="590.4727" xml:space="preserve" y="-205.8457" clip-path="url(#clipPath2)" font-family="sans-serif" stroke="none">TwilightStore</text>
    </g>
    <g fill="rgb(255,204,0)" text-rendering="geometricPrecision" shape-rendering="geometricPrecision" transform="matrix(1,0,0,1,282,347)" stroke="rgb(255,204,0)">
      <rect x="515.5" width="229" height="64" y="38" clip-path="url(#clipPath2)" stroke="none"/>
    </g>
    <g stroke-linecap="butt" transform="matrix(1,0,0,1,282,347)" fill="red" text-rendering="geometricPrecision" shape-rendering="geometricPrecision" stroke="red" stroke-miterlimit="1.45">
      <rect fill="none" x="515.5" width="229" height="64" y="38" clip-path="url(#clipPath2)"/>
      <text x="582.8379" xml:space="preserve" y="74.1543" clip-path="url(#clipPath2)" font-family="sans-serif" stroke="none">TwilightHandler</text>
    </g>
    <g fill="rgb(255,204,0)" text-rendering="geometricPrecision" shape-rendering="geometricPrecision" transform="matrix(1,0,0,1,282,347)" stroke="rgb(255,204,0)">
      <rect x="515.5" width="229" height="64" y="298" clip-path="url(#clipPath2)" stroke="none"/>
    </g>
    <g text-rendering="geometricPrecision" stroke-miterlimit="1.45" shape-rendering="geometricPrecision" transform="matrix(1,0,0,1,282,347)" stroke-linecap="butt">
      <rect fill="none" x="515.5" width="229" height="64" y="298" clip-path="url(#clipPath2)"/>
      <text x="583.5615" xml:space="preserve" y="334.1543" clip-path="url(#clipPath2)" font-family="sans-serif" stroke="none">PowerSampling</text>
      <path fill="none" d="M295 501.991 L295 572.0043" clip-path="url(#clipPath2)"/>
      <path fill="none" d="M150 502.0175 L150 572.0118" clip-path="url(#clipPath2)"/>
      <path fill="none" d="M221.5 369 L221.5 438" clip-path="url(#clipPath2)"/>
      <path d="M221.5 362 L226.5 369 L221.5 376 L216.5 369 Z" clip-path="url(#clipPath2)" stroke="none"/>
      <path fill="none" d="M221.5 229 L221.5 298" clip-path="url(#clipPath2)"/>
      <path d="M221.5 222 L226.5 229 L221.5 236 L216.5 229 Z" clip-path="url(#clipPath2)" stroke="none"/>
    </g>
    <g text-rendering="geometricPrecision" stroke-miterlimit="1.45" shape-rendering="geometricPrecision" transform="matrix(1,0,0,1,282,347)" stroke-linecap="butt">
      <path fill="none" d="M178.5 102.0215 L178.5 145.8461 L173.75 142.9961 L180 157.9961 L186.25 142.9961 L181.5 145.8461 L181.5 102.0215 Z" clip-path="url(#clipPath2)"/>
      <text x="216.4727" xml:space="preserve" y="131.0293" clip-path="url(#clipPath2)" font-family="sans-serif" stroke="none">EVT_BEHAVIOUR_SWITCH_STATE</text>
    </g>
    <g text-rendering="geometricPrecision" stroke-miterlimit="1.45" shape-rendering="geometricPrecision" transform="matrix(1,0,0,1,282,347)" stroke-linecap="butt">
      <path fill="none" d="M156.1592 37.9736 L156.1592 -170.0044" clip-path="url(#clipPath2)"/>
      <path d="M156.1592 -178.0044 L151.1592 -166.0044 L156.1592 -169.0044 L161.1592 -166.0044 Z" clip-path="url(#clipPath2)" stroke="none"/>
      <text x="10.3887" xml:space="preserve" y="-65.8457" clip-path="url(#clipPath2)" font-family="sans-serif" stroke="none">getActiveBehaviours()</text>
      <path fill="none" stroke-dasharray="6,2" d="M224.75 -177.9761 L224.75 -80 L315.2767 -80" clip-path="url(#clipPath2)" stroke="red"/>
      <path stroke-dasharray="6,2" d="M319.2767 -80 L307.2767 -86 L319.2767 -80 L307.2767 -74 Z" clip-path="url(#clipPath2)" stroke="none"/>
    </g>
    <g fill="red" text-rendering="geometricPrecision" shape-rendering="geometricPrecision" transform="matrix(1,0,0,1,282,347)" stroke="red">
      <path fill="none" d="M319.2767 -80 L307.2767 -86 L319.2767 -80 L307.2767 -74 Z" clip-path="url(#clipPath2)"/>
      <text stroke-linecap="butt" x="234.1357" y="-105.8457" clip-path="url(#clipPath2)" font-family="sans-serif" stroke="none" stroke-miterlimit="1.45" xml:space="preserve">save() TODO</text>
    </g>
    <g text-rendering="geometricPrecision" stroke-miterlimit="1.45" shape-rendering="geometricPrecision" transform="matrix(1,0,0,1,282,347)" stroke-linecap="butt">
      <path fill="none" d="M223.75 -51.5 L223.75 -50 L223.75 25.85 L219 23 L225.25 38 L231.5 23 L226.75 25.85 L226.75 -48.5 L320.2564 -48.5 L320.2564 -51.5 Z" clip-path="url(#clipPath2)"/>
      <text x="236.3135" xml:space="preserve" y="-8.4457" clip-path="url(#clipPath2)" font-family="sans-serif" stroke="none">STATE_TIME</text>
    </g>
    <g text-rendering="geometricPrecision" stroke-miterlimit="1.45" shape-rendering="geometricPrecision" transform="matrix(1,0,0,1,282,347)" stroke-linecap="butt">
      <path fill="none" d="M-21.2712 -289.34 L-21.2712 -286.34 L201.1875 -286.34 L201.1875 -254.1503 L196.4375 -257.0003 L202.6875 -242.0003 L208.9375 -257.0003 L204.1875 -254.1503 L204.1875 -287.84 L204.1875 -289.34 Z" clip-path="url(#clipPath2)"/>
      <text x="-70.5575" xml:space="preserve" y="-238.3888" clip-path="url(#clipPath2)" font-family="sans-serif" stroke="none">EVT_REPLACE_BEHAVIOUR</text>
      <text x="-70.5575" xml:space="preserve" y="-224.4201" clip-path="url(#clipPath2)" font-family="sans-serif" stroke="none">EVT_SAVE_BEHAVIOUR</text>
      <text x="-70.5575" xml:space="preserve" y="-210.4513" clip-path="url(#clipPath2)" font-family="sans-serif" stroke="none">EVT_REMOVE_BEHAVIOUR</text>
      <text x="-70.5575" xml:space="preserve" y="-196.4826" clip-path="url(#clipPath2)" font-family="sans-serif" stroke="none">EVT_GET_BEHAVIOUR</text>
    </g>
    <g text-rendering="geometricPrecision" stroke-miterlimit="1.45" shape-rendering="geometricPrecision" transform="matrix(1,0,0,1,282,347)" stroke-linecap="butt">
      <path fill="none" d="M-137.25 -268 L-137.25 190 L-137.25 191.5 L-135.75 191.5 L94.85 191.5 L92 196.25 L107 190 L92 183.75 L94.85 188.5 L-134.25 188.5 L-134.25 -268 Z" clip-path="url(#clipPath2)"/>
      <text x="-111.6147" xml:space="preserve" y="70.7012" clip-path="url(#clipPath2)" font-family="sans-serif" stroke="none">CMD_SWITCH_LOCKED</text>
      <text x="-111.6147" xml:space="preserve" y="84.6699" clip-path="url(#clipPath2)" font-family="sans-serif" stroke="none">CMD_DIMMING_ALLOWED</text>
      <text x="-111.6147" xml:space="preserve" y="98.6387" clip-path="url(#clipPath2)" font-family="sans-serif" stroke="none">CMD_SWITCH_ON</text>
      <text x="-111.6147" xml:space="preserve" y="112.6074" clip-path="url(#clipPath2)" font-family="sans-serif" stroke="none">CMD_SWITCH_OFF</text>
      <text x="-111.6147" xml:space="preserve" y="126.5762" clip-path="url(#clipPath2)" font-family="sans-serif" stroke="none">CMD_SWITCH</text>
      <text x="-111.6147" xml:space="preserve" y="140.5449" clip-path="url(#clipPath2)" font-family="sans-serif" stroke="none">CMD_SWITCH_TOGGLE</text>
      <text x="-111.6147" xml:space="preserve" y="154.5137" clip-path="url(#clipPath2)" font-family="sans-serif" stroke="none">CMD_SET_RELAY</text>
      <text x="-111.6147" xml:space="preserve" y="168.4824" clip-path="url(#clipPath2)" font-family="sans-serif" stroke="none">CMD_SET_DIMMER</text>
    </g>
    <g text-rendering="geometricPrecision" stroke-miterlimit="1.45" shape-rendering="geometricPrecision" transform="matrix(1,0,0,1,282,347)" stroke-linecap="butt">
      <path fill="none" d="M-177.8408 -267.9694 L-177.8408 330 L-177.8408 331.5 L94.85 331.5 L92 336.25 L107 330 L92 323.75 L94.85 328.5 L-174.8408 328.5 L-174.8408 -267.9694 Z" clip-path="url(#clipPath2)"/>
      <text x="-264.3591" xml:space="preserve" y="362.1934" clip-path="url(#clipPath2)" font-family="sans-serif" stroke="none">EVT_CURRENT_USAGE_ABOVE_THRESHOLD_DIMMER</text>
      <text x="-264.3591" xml:space="preserve" y="376.1621" clip-path="url(#clipPath2)" font-family="sans-serif" stroke="none">EVT_DIMMER_TEMP_ABOVE_THRESHOLD</text>
      <text x="-264.3591" xml:space="preserve" y="390.1309" clip-path="url(#clipPath2)" font-family="sans-serif" stroke="none">EVT_DIMMER_ON_FAILURE_DETECTED</text>
      <text x="-264.3591" xml:space="preserve" y="404.0996" clip-path="url(#clipPath2)" font-family="sans-serif" stroke="none">EVT_CURRENT_USAGE_ABOVE_THRESHOLD</text>
      <text x="-264.3591" xml:space="preserve" y="418.0684" clip-path="url(#clipPath2)" font-family="sans-serif" stroke="none">EVT_CHIP_TEMP_ABOVE_THRESHOLD</text>
      <text x="-264.3591" xml:space="preserve" y="432.0371" clip-path="url(#clipPath2)" font-family="sans-serif" stroke="none">STATE_SWITCH_STATE</text>
      <text x="-264.3591" xml:space="preserve" y="446.0059" clip-path="url(#clipPath2)" font-family="sans-serif" stroke="none">EVT_TICK</text>
    </g>
    <g stroke-linecap="butt" transform="matrix(1,0,0,1,282,347)" fill="red" text-rendering="geometricPrecision" shape-rendering="geometricPrecision" stroke="red" stroke-miterlimit="1.45">
      <path fill="none" d="M-21.283 -314.94 L-21.283 -311.94 L598.5 -311.94 L598.5 -254.1467 L593.75 -256.9967 L600 -241.9967 L606.25 -256.9967 L601.5 -254.1467 L601.5 -313.44 L601.5 -314.94 Z" clip-path="url(#clipPath2)"/>
      <text x="630.6289" xml:space="preserve" y="-315.2388" clip-path="url(#clipPath2)" font-family="sans-serif" stroke="none">EVT_UPDATE_TWILIGHT</text>
      <text x="639.0107" xml:space="preserve" y="-301.2701" clip-path="url(#clipPath2)" font-family="sans-serif" stroke="none">EVT_SAVE_TWILIGHT</text>
      <text x="629.0645" xml:space="preserve" y="-287.3013" clip-path="url(#clipPath2)" font-family="sans-serif" stroke="none">EVT_REMOVE_TWILIGHT</text>
      <text x="642.7139" xml:space="preserve" y="-273.3326" clip-path="url(#clipPath2)" font-family="sans-serif" stroke="none">EVT_GET_TWILIGHT</text>
    </g>
    <g stroke-linecap="butt" transform="matrix(1,0,0,1,282,347)" fill="red" text-rendering="geometricPrecision" shape-rendering="geometricPrecision" stroke-dasharray="6,2" stroke="red" stroke-miterlimit="1.45">
      <path fill="none" d="M630 -178 L630 -80 L554.2973 -80" clip-path="url(#clipPath2)"/>
      <path fill="black" d="M550.2973 -80 L562.2973 -74 L550.2973 -80 L562.2973 -86 Z" clip-path="url(#clipPath2)" stroke="none"/>
      <path fill="none" stroke-miterlimit="10" stroke-dasharray="none" d="M550.2973 -80 L562.2973 -74 L550.2973 -80 L562.2973 -86 Z" clip-path="url(#clipPath2)" stroke-linecap="square"/>
      <text x="537.0598" y="-105.8457" clip-path="url(#clipPath2)" font-family="sans-serif" stroke-dasharray="none" stroke="none" xml:space="preserve">save() TODO</text>
    </g>
    <g stroke-linecap="butt" transform="matrix(1,0,0,1,282,347)" fill="red" text-rendering="geometricPrecision" shape-rendering="geometricPrecision" stroke="red" stroke-miterlimit="1.45">
      <path fill="none" d="M549.2973 -51.5 L549.2973 -48.5 L628.5 -48.5 L628.5 25.85 L623.75 23 L630 38 L636.25 23 L631.5 25.85 L631.5 -50 L631.5 -51.5 Z" clip-path="url(#clipPath2)"/>
      <text x="542.144" y="-2.0217" clip-path="url(#clipPath2)" fill="black" font-family="sans-serif" stroke="none" xml:space="preserve">STATE_TIME</text>
    </g>
    <g stroke-linecap="butt" transform="matrix(1,0,0,1,282,347)" fill="red" text-rendering="geometricPrecision" shape-rendering="geometricPrecision" stroke="red" stroke-miterlimit="1.45">
      <path fill="none" d="M628.5 102 L628.5 174.75 L348.1916 174.75 L351.0416 170 L336.0416 176.25 L351.0416 182.5 L348.1916 177.75 L631.5 177.75 L631.5 176.25 L631.5 102 Z" clip-path="url(#clipPath2)"/>
      <text x="480.7607" xml:space="preserve" y="150.4043" clip-path="url(#clipPath2)" font-family="sans-serif" stroke="none">EVT_TWILIGHT_STATE</text>
    </g>
    <g stroke-linecap="butt" transform="matrix(1,0,0,1,282,347)" fill="red" text-rendering="geometricPrecision" shape-rendering="geometricPrecision" stroke="red" stroke-miterlimit="1.45">
      <path fill="none" d="M684.8234 37.9839 L684.8234 -170.0132" clip-path="url(#clipPath2)"/>
      <path d="M684.8234 -178.0132 L679.8234 -166.0132 L684.8234 -169.0132 L689.8234 -166.0132 Z" clip-path="url(#clipPath2)" stroke="none"/>
      <text x="701.2111" xml:space="preserve" y="-42.0957" clip-path="url(#clipPath2)" font-family="sans-serif" stroke="none">getActiveTwilights()</text>
    </g>
    <g text-rendering="geometricPrecision" stroke-miterlimit="1.45" shape-rendering="geometricPrecision" transform="matrix(1,0,0,1,282,347)" stroke-linecap="butt">
      <path fill="none" d="M350.9693 200.5776 L335.9693 206.8276 L350.9693 213.0776 L348.1193 208.3276 L628.5 208.3276 L628.5 298 L631.5 298 L631.5 206.8276 L631.5 205.3276 L348.1193 205.3276 L350.9693 200.5776 Z" clip-path="url(#clipPath2)"/>
      <text x="472.5664" xml:space="preserve" y="240.9819" clip-path="url(#clipPath2)" font-family="sans-serif" stroke="none">CMD_SWITCH_TOGGLE</text>
    </g>
  </g>
</svg>
