<?xml version="1.0" encoding="utf-8"?>
<!-- Generator: Adobe Illustrator 20.1.0, SVG Export Plug-In . SVG Version: 6.00 Build 0)  -->
<svg version="1.1" id="Layer_1" xmlns="http://www.w3.org/2000/svg" xmlns:xlink="http://www.w3.org/1999/xlink" x="0px" y="0px"
	 viewBox="0 0 841.9 595.3" style="enable-background:new 0 0 841.9 595.3;" xml:space="preserve">
<g id="CrownstoneLogo">
	<path d="M608.9,118.4c-26.8,0-48.4,21.9-48.4,48.9c0,12.8,4.8,24.4,12.8,33l-40.6,72.1c-3.1-0.6-6.5-1-9.8-1
		c-2.8,0-5.6,0.3-8.3,0.8l-60.8-125.4c8.9-8.9,14.4-21.2,14.4-34.7c0-27-21.7-48.9-48.5-48.9c-26.8,0-48.5,21.9-48.5,48.9
		c0,13.7,5.5,26,14.4,34.8l-60.2,125.2c-2.4-0.4-4.9-0.6-7.4-0.6c-4,0-7.9,0.5-11.7,1.4l-40.4-72.4c8-8.7,12.9-20.3,12.9-33.2
		c0-27-21.7-48.9-48.4-48.9s-48.4,21.9-48.4,48.9s21.7,48.9,48.4,48.9c3.3,0,6.5-0.3,9.7-1l41,73.5c-7.2,8.5-11.5,19.6-11.5,31.6
		c0,27,21.7,48.9,48.4,48.9c21.9,0,40.4-14.6,46.4-34.7h112.2c6,20.1,24.5,34.7,46.5,34.7c26.8,0,48.5-21.9,48.5-48.9
		c0-12.8-4.9-24.4-12.8-33.1l40.5-72.1c3.2,0.6,6.5,1,9.9,1c26.8,0,48.4-21.9,48.4-48.9S635.6,118.4,608.9,118.4z M412.1,160.4
		c2.4,0.4,4.9,0.6,7.4,0.6c2.6,0,5.1-0.2,7.6-0.6l61,125.9c-5,5.1-8.9,11.4-11.2,18.4H363.7c-2.4-7.3-6.5-13.7-11.9-19.1
		L412.1,160.4z"/>
</g>
<g>
	<path d="M94.2,497.8c0.5,0,0.9,0.2,1.3,0.6l3.7,4c-2.3,2.8-5.2,5-8.6,6.5c-3.4,1.5-7.5,2.3-12.2,2.3c-4.2,0-8-0.7-11.4-2.2
		c-3.4-1.5-6.3-3.5-8.7-6.1c-2.4-2.6-4.2-5.7-5.5-9.3s-1.9-7.6-1.9-11.9c0-4.3,0.7-8.3,2.1-11.9c1.4-3.6,3.3-6.7,5.8-9.3
		c2.5-2.6,5.5-4.6,9-6.1c3.5-1.4,7.3-2.2,11.5-2.2c4.2,0,7.8,0.7,11,2c3.2,1.3,6,3.1,8.3,5.4l-3.1,4.4c-0.2,0.3-0.5,0.5-0.8,0.8
		c-0.3,0.2-0.7,0.3-1.2,0.3c-0.5,0-1.1-0.2-1.8-0.7c-0.7-0.5-1.5-1-2.6-1.6c-1.1-0.6-2.4-1.1-4-1.6c-1.6-0.5-3.6-0.7-5.9-0.7
		c-2.7,0-5.3,0.5-7.6,1.4c-2.3,1-4.3,2.4-5.9,4.2c-1.7,1.8-2.9,4.1-3.9,6.7c-0.9,2.6-1.4,5.6-1.4,9c0,3.4,0.5,6.4,1.4,9.1
		c1,2.7,2.3,4.9,4,6.7c1.7,1.8,3.7,3.2,5.9,4.2s4.7,1.4,7.3,1.4c1.6,0,3-0.1,4.3-0.3c1.3-0.2,2.4-0.5,3.5-0.8c1.1-0.4,2.1-0.9,3-1.5
		c0.9-0.6,1.9-1.3,2.8-2.2C93.2,498.1,93.7,497.8,94.2,497.8z"/>
	<path d="M170.4,510.7h-8.4c-1.7,0-2.9-0.6-3.6-1.9L145,489.4c-0.5-0.7-0.9-1.1-1.5-1.4c-0.5-0.3-1.3-0.4-2.4-0.4h-5.2v23.2h-9.4
		v-57.6h17c3.8,0,7,0.4,9.8,1.2c2.7,0.8,5,1.9,6.7,3.3c1.8,1.4,3.1,3.1,3.9,5.1c0.8,2,1.3,4.2,1.3,6.7c0,2-0.3,3.9-0.9,5.6
		s-1.5,3.3-2.6,4.7c-1.1,1.4-2.5,2.6-4.2,3.7s-3.5,1.9-5.6,2.4c1.1,0.7,2.1,1.7,3,2.9L170.4,510.7z M143.3,480.7
		c2.1,0,4-0.3,5.6-0.8c1.6-0.5,2.9-1.2,4-2.2c1.1-0.9,1.9-2,2.4-3.3c0.5-1.3,0.8-2.7,0.8-4.3c0-3.1-1-5.5-3.1-7.2
		c-2.1-1.7-5.2-2.5-9.4-2.5h-7.6v20.3H143.3z"/>
	<path d="M250,481.9c0,4.3-0.7,8.2-2.1,11.8c-1.4,3.6-3.3,6.7-5.9,9.3c-2.5,2.6-5.5,4.6-9.1,6.1c-3.5,1.5-7.5,2.2-11.8,2.2
		c-4.3,0-8.2-0.7-11.7-2.2c-3.5-1.5-6.6-3.5-9.1-6.1c-2.5-2.6-4.5-5.7-5.9-9.3c-1.4-3.6-2.1-7.5-2.1-11.8s0.7-8.2,2.1-11.8
		c1.4-3.6,3.3-6.7,5.9-9.3c2.5-2.6,5.6-4.7,9.1-6.1c3.5-1.5,7.4-2.2,11.7-2.2c4.3,0,8.2,0.7,11.8,2.2c3.5,1.5,6.6,3.5,9.1,6.1
		s4.5,5.7,5.9,9.3C249.3,473.7,250,477.6,250,481.9z M240.5,481.9c0-3.3-0.4-6.3-1.3-8.9c-0.9-2.6-2.2-4.9-3.8-6.7
		c-1.7-1.8-3.7-3.3-6.1-4.2c-2.4-1-5-1.5-8-1.5c-2.9,0-5.6,0.5-8,1.5c-2.4,1-4.4,2.4-6.1,4.2c-1.7,1.8-3,4.1-3.9,6.7
		c-0.9,2.6-1.4,5.6-1.4,8.9c0,3.3,0.5,6.3,1.4,9c0.9,2.6,2.2,4.9,3.9,6.7c1.7,1.8,3.7,3.2,6.1,4.2c2.4,1,5,1.5,8,1.5
		c3,0,5.6-0.5,8-1.5c2.4-1,4.4-2.4,6.1-4.2c1.7-1.8,2.9-4.1,3.8-6.7C240,488.2,240.5,485.2,240.5,481.9z"/>
	<path d="M354.2,453.1l-17.9,57.6h-8.4l-13.5-41.4c-0.2-0.5-0.3-0.9-0.5-1.5c-0.1-0.5-0.3-1.1-0.4-1.7c-0.1,0.6-0.3,1.2-0.4,1.7
		c-0.1,0.5-0.3,1-0.5,1.5l-13.6,41.4h-8.4l-17.9-57.6h7.8c0.8,0,1.5,0.2,2,0.6c0.5,0.4,0.9,0.9,1.1,1.6l10.8,36.9
		c0.2,0.8,0.4,1.7,0.6,2.6s0.4,1.9,0.6,2.9c0.2-1,0.4-2,0.6-2.9c0.2-0.9,0.5-1.8,0.7-2.6l12.4-36.9c0.2-0.5,0.6-1,1.1-1.5
		c0.6-0.5,1.2-0.7,2-0.7h2.7c0.8,0,1.5,0.2,2,0.6c0.5,0.4,0.9,0.9,1.2,1.5l12.3,36.9c0.3,0.8,0.5,1.6,0.7,2.5
		c0.2,0.9,0.4,1.8,0.6,2.8c0.2-1,0.4-1.9,0.5-2.8s0.4-1.7,0.6-2.5l10.8-36.9c0.2-0.6,0.5-1.1,1.1-1.5c0.6-0.4,1.2-0.6,2-0.6H354.2z"
		/>
	<path d="M428.8,453.1v57.6h-4.8c-0.7,0-1.3-0.1-1.8-0.4c-0.5-0.3-1-0.7-1.4-1.3l-31.6-40.6c0.1,0.8,0.1,1.5,0.2,2.3
		c0,0.8,0.1,1.5,0.1,2.1v37.9h-8.2v-57.6h4.9c0.4,0,0.7,0,1,0.1c0.3,0,0.5,0.1,0.8,0.2c0.2,0.1,0.5,0.3,0.7,0.5
		c0.2,0.2,0.4,0.5,0.7,0.8l31.7,40.7c-0.1-0.8-0.1-1.6-0.2-2.4s-0.1-1.5-0.1-2.2v-37.6H428.8z"/>
	<path d="M491.9,462.9c-0.3,0.5-0.6,0.8-0.9,1.1c-0.3,0.2-0.7,0.3-1.2,0.3c-0.5,0-1.1-0.2-1.7-0.6c-0.6-0.4-1.4-0.9-2.3-1.4
		c-0.9-0.5-2-1-3.3-1.4c-1.3-0.4-2.7-0.7-4.5-0.7c-1.6,0-3,0.2-4.2,0.6c-1.2,0.4-2.2,1-3.1,1.7c-0.8,0.7-1.4,1.6-1.9,2.5
		c-0.4,1-0.6,2-0.6,3.2c0,1.5,0.4,2.7,1.2,3.7c0.8,1,1.8,1.8,3.1,2.5c1.3,0.7,2.7,1.3,4.3,1.8c1.6,0.5,3.3,1.1,5,1.7
		c1.7,0.6,3.4,1.3,5,2c1.6,0.7,3.1,1.7,4.3,2.8s2.3,2.5,3.1,4.2c0.8,1.7,1.2,3.7,1.2,6c0,2.6-0.4,5-1.3,7.2
		c-0.9,2.2-2.2,4.2-3.8,5.9c-1.7,1.7-3.7,3-6.2,3.9c-2.4,1-5.2,1.4-8.3,1.4c-1.8,0-3.6-0.2-5.4-0.5c-1.7-0.4-3.4-0.9-5-1.5
		c-1.6-0.7-3.1-1.4-4.5-2.4s-2.6-2-3.7-3.1l2.7-4.5c0.2-0.4,0.5-0.7,0.9-0.9c0.4-0.2,0.8-0.3,1.2-0.3c0.6,0,1.3,0.3,2,0.9
		c0.7,0.6,1.6,1.2,2.7,1.9c1.1,0.7,2.3,1.3,3.8,1.9c1.5,0.6,3.3,0.9,5.4,0.9c3.4,0,6-0.8,7.9-2.5c1.9-1.7,2.8-3.9,2.8-6.8
		c0-1.6-0.4-3-1.2-4c-0.8-1-1.8-1.9-3.1-2.6s-2.7-1.3-4.3-1.8c-1.6-0.5-3.3-1-5-1.5s-3.3-1.2-5-1.9c-1.6-0.7-3.1-1.7-4.3-2.9
		c-1.3-1.2-2.3-2.7-3.1-4.4c-0.8-1.7-1.2-3.9-1.2-6.5c0-2.1,0.4-4.1,1.2-6c0.8-1.9,2-3.7,3.6-5.2c1.6-1.5,3.5-2.7,5.8-3.6
		c2.3-0.9,4.9-1.4,7.8-1.4c3.3,0,6.3,0.5,9.1,1.6c2.8,1,5.1,2.5,7.1,4.4L491.9,462.9z"/>
	<path d="M564.2,460.9h-18v49.8h-9.3v-49.8h-18v-7.8h45.3V460.9z"/>
	<path d="M643.3,481.9c0,4.3-0.7,8.2-2.1,11.8s-3.3,6.7-5.9,9.3c-2.5,2.6-5.5,4.6-9.1,6.1c-3.5,1.5-7.5,2.2-11.8,2.2
		c-4.3,0-8.2-0.7-11.7-2.2s-6.6-3.5-9.1-6.1c-2.5-2.6-4.5-5.7-5.9-9.3c-1.4-3.6-2.1-7.5-2.1-11.8s0.7-8.2,2.1-11.8
		c1.4-3.6,3.3-6.7,5.9-9.3c2.5-2.6,5.6-4.7,9.1-6.1c3.5-1.5,7.4-2.2,11.7-2.2c4.3,0,8.2,0.7,11.8,2.2c3.5,1.5,6.6,3.5,9.1,6.1
		c2.5,2.6,4.5,5.7,5.9,9.3C642.6,473.7,643.3,477.6,643.3,481.9z M633.7,481.9c0-3.3-0.4-6.3-1.3-8.9c-0.9-2.6-2.2-4.9-3.8-6.7
		c-1.7-1.8-3.7-3.3-6.1-4.2c-2.4-1-5-1.5-8-1.5c-2.9,0-5.6,0.5-8,1.5c-2.4,1-4.4,2.4-6.1,4.2c-1.7,1.8-3,4.1-3.9,6.7
		c-0.9,2.6-1.4,5.6-1.4,8.9c0,3.3,0.5,6.3,1.4,9c0.9,2.6,2.2,4.9,3.9,6.7s3.7,3.2,6.1,4.2c2.4,1,5,1.5,8,1.5c3,0,5.6-0.5,8-1.5
		c2.4-1,4.4-2.4,6.1-4.2s2.9-4.1,3.8-6.7C633.3,488.2,633.7,485.2,633.7,481.9z"/>
	<path d="M720.4,453.1v57.6h-4.8c-0.7,0-1.3-0.1-1.8-0.4c-0.5-0.3-1-0.7-1.4-1.3l-31.6-40.6c0.1,0.8,0.1,1.5,0.2,2.3
		c0,0.8,0.1,1.5,0.1,2.1v37.9h-8.2v-57.6h4.9c0.4,0,0.7,0,1,0.1c0.3,0,0.5,0.1,0.8,0.2c0.2,0.1,0.5,0.3,0.7,0.5
		c0.2,0.2,0.4,0.5,0.7,0.8l31.7,40.7c-0.1-0.8-0.1-1.6-0.2-2.4s-0.1-1.5-0.1-2.2v-37.6H720.4z"/>
	<path d="M789.3,503.1l0,7.6h-35.9v-57.6h35.9v7.6h-26.5V478h21.2v7.3h-21.2v17.8H789.3z"/>
</g>
</svg>
