<?xml version="1.0" encoding="utf-8"?>
<!-- Generator: Adobe Illustrator 13.0.2, SVG Export Plug-In . SVG Version: 6.00 Build 14948)  -->
<!DOCTYPE svg PUBLIC "-//W3C//DTD SVG 1.1 Tiny//EN" "http://www.w3.org/Graphics/SVG/1.1/DTD/svg11-tiny.dtd">
<svg version="1.1" baseProfile="tiny" id="Layer_1" xmlns="http://www.w3.org/2000/svg" xmlns:xlink="http://www.w3.org/1999/xlink"
	 x="0px" y="0px" width="43.996px" height="29.996px" viewBox="0 0 43.996 29.996" xml:space="preserve">
<path d="M1.174,21.996c-0.262-0.645-0.473-1.314-0.648-2h43.47c0,0.686-0.069,1.35-0.181,2H1.174z M8.26,1.999
	C10.554,0.729,13.19,0,15.998,0c2.806,0,5.436,0.73,7.728,1.999H8.26z M0.139,13.998c0.085-0.682,0.218-1.348,0.387-1.999h40.396
	c0.552,0.612,1.039,1.28,1.455,1.999H0.139z M1.174,9.999c0.281-0.692,0.613-1.358,0.984-2H29.84
	c0.04,0.067,0.084,0.135,0.123,0.205c0.664-0.114,1.339-0.205,2.033-0.205c2.451,0,4.729,0.737,6.627,2H1.174z M3.521,5.999
	c0.58-0.724,1.225-1.388,1.92-2h21.123c0.689,0.61,1.326,1.28,1.902,2H3.521z M43.813,17.996H0.139C0.057,17.34,0,16.676,0,15.998
	h43.298C43.524,16.641,43.699,17.309,43.813,17.996z M43.298,23.996c-0.246,0.699-0.555,1.367-0.921,2H3.521
	c-0.505-0.629-0.957-1.299-1.363-2H43.298z M5.441,27.996h35.48c-0.68,0.758-1.447,1.436-2.299,2H8.26
	C7.244,29.434,6.306,28.756,5.441,27.996z"/>
</svg>
