<?xml version="1.0" encoding="utf-8"?>
<!-- Generator: Adobe Illustrator 13.0.2, SVG Export Plug-In . SVG Version: 6.00 Build 14948)  -->
<!DOCTYPE svg PUBLIC "-//W3C//DTD SVG 1.1 Tiny//EN" "http://www.w3.org/Graphics/SVG/1.1/DTD/svg11-tiny.dtd">
<svg version="1.1" baseProfile="tiny" id="Layer_1" xmlns="http://www.w3.org/2000/svg" xmlns:xlink="http://www.w3.org/1999/xlink"
	 x="0px" y="0px" width="45px" height="44.044px" viewBox="0 0 45 44.044" xml:space="preserve">
<path d="M43.085,36.384c-1.058,0-1.914-0.856-1.914-1.915c0-1.057,0.856-1.915,1.914-1.915S45,33.412,45,34.469
	C45,35.527,44.143,36.384,43.085,36.384z M34.468,29.971v-4.195c2.287-1.325,3.83-3.793,3.83-6.626c0-4.23-3.429-7.66-7.659-7.66
	c-1.533,0-2.953,0.46-4.15,1.236c-1.18-5.091-5.72-8.896-11.169-8.896c-6.346,0-11.49,5.144-11.49,11.489
	c0,3.398,1.486,6.442,3.831,8.545v4.707C3.085,25.922,0,20.986,0,15.319C0,6.858,6.858,0,15.319,0
	c5.749,0,10.753,3.171,13.372,7.855c0.636-0.109,1.28-0.197,1.947-0.197c6.345,0,11.488,5.146,11.488,11.491
	C42.127,24.15,38.926,28.393,34.468,29.971z M2.873,37.342c1.057,0,1.915,0.857,1.915,1.915s-0.857,1.915-1.915,1.915
	s-1.915-0.857-1.915-1.915C0.958,38.198,1.814,37.342,2.873,37.342z M12.446,21.064c0-1.057-0.1-1.915,0.958-1.915
	c1.057,0,0.958,0.858,0.958,1.915v22.979h-1.916l0,0l0,0c0-2.115-1.714-3.83-3.829-3.83v-1.915c1.478,0,2.812,0.575,3.829,1.49
	V21.064z M21.063,34.469c-1.057,0-0.958-0.856-0.958-1.915v-7.659c0-1.058-0.1-1.915,0.958-1.915c1.057,0,0.958,0.857,0.958,1.915
	v7.659C22.021,33.612,22.12,34.469,21.063,34.469z M21.063,38.299c1.057,0,1.916,0.857,1.916,1.915s-0.859,1.915-1.916,1.915
	c-1.057,0-1.915-0.857-1.915-1.915C19.148,39.155,20.006,38.299,21.063,38.299z M28.723,19.149c1.059,0,0.958,0.858,0.958,1.915
	v17.252c1.746-2.331,4.523-3.848,7.659-3.848v1.915c-4.23,0-7.659,3.43-7.659,7.66h-1.915c0-0.261,0.02-0.518,0.039-0.772
	c-0.051-0.319-0.039-0.712-0.039-1.143V21.064C27.766,20.008,27.666,19.149,28.723,19.149z"/>
</svg>
