<?xml version="1.0" encoding="utf-8"?>
<!-- Generator: Adobe Illustrator 13.0.2, SVG Export Plug-In . SVG Version: 6.00 Build 14948)  -->
<!DOCTYPE svg PUBLIC "-//W3C//DTD SVG 1.1 Tiny//EN" "http://www.w3.org/Graphics/SVG/1.1/DTD/svg11-tiny.dtd">
<svg version="1.1" baseProfile="tiny" id="Layer_1" xmlns="http://www.w3.org/2000/svg" xmlns:xlink="http://www.w3.org/1999/xlink"
	 x="0px" y="0px" width="45px" height="38.865px" viewBox="0 0 45 38.865" xml:space="preserve">
<path d="M34.772,32.546V28.37c3.526-0.91,6.138-4.104,6.138-7.915c0-4.517-3.664-8.181-8.183-8.181c-1.638,0-3.154,0.49-4.433,1.32
	c-1.26-5.438-6.11-9.503-11.931-9.503C9.585,4.092,4.09,9.587,4.09,16.366c0,4.538,2.472,8.494,6.136,10.616v4.546
	C4.233,29.099,0,23.23,0,16.364C0,7.328,7.326,0,16.364,0c6.141,0,11.486,3.388,14.285,8.391c0.679-0.116,1.366-0.21,2.079-0.21
	C39.505,8.181,45,13.677,45,20.453C45,26.536,40.574,31.569,34.772,32.546z M15.414,26.593c0.565-0.979,1.816-1.312,2.795-0.748
	l2.246,1.295v-2.593c0-1.129,0.917-2.046,2.046-2.046c1.129,0,2.046,0.917,2.046,2.046v2.593l2.245-1.296
	c0.979-0.563,2.23-0.23,2.793,0.749c0.565,0.979,0.23,2.229-0.747,2.794l-2.247,1.297l2.247,1.297
	c0.978,0.565,1.312,1.816,0.747,2.795c-0.564,0.977-1.814,1.312-2.793,0.746l-2.245-1.296v2.594c0,1.131-0.917,2.046-2.046,2.046
	c-1.129,0-2.046-0.915-2.046-2.046v-2.594l-2.245,1.298c-0.979,0.565-2.23,0.23-2.794-0.746c-0.565-0.979-0.23-2.23,0.749-2.795
	l2.245-1.299l-2.245-1.296C15.185,28.822,14.85,27.571,15.414,26.593z M22.5,32.729c1.129,0,2.046-0.916,2.046-2.046
	s-0.917-2.045-2.046-2.045c-1.129,0-2.046,0.915-2.046,2.045C20.454,31.812,21.371,32.729,22.5,32.729z"/>
</svg>
