<?xml version="1.0" encoding="utf-8"?>
<!-- Generator: Adobe Illustrator 13.0.2, SVG Export Plug-In . SVG Version: 6.00 Build 14948)  -->
<!DOCTYPE svg PUBLIC "-//W3C//DTD SVG 1.1 Tiny//EN" "http://www.w3.org/Graphics/SVG/1.1/DTD/svg11-tiny.dtd">
<svg version="1.1" baseProfile="tiny" id="Layer_1" xmlns="http://www.w3.org/2000/svg" xmlns:xlink="http://www.w3.org/1999/xlink"
	 x="0px" y="0px" width="43.994px" height="31.996px" viewBox="0 0 43.994 31.996" xml:space="preserve">
<path d="M15.998,31.996C7.163,31.996,0,24.834,0,15.998S7.163,0,15.998,0c6.004,0,11.229,3.312,13.965,8.203
	c0.664-0.113,1.338-0.205,2.033-0.205c6.627,0,11.998,5.373,11.998,12c0,6.625-5.371,11.998-11.998,11.998
	C29.221,31.996,19.196,31.996,15.998,31.996z M31.996,27.996c4.418,0,8-3.582,8-7.998c0-4.418-3.582-8-8-8
	c-1.6,0-3.082,0.481-4.334,1.291C26.432,7.974,21.689,4,15.998,4C9.372,4,4,9.371,4,15.998s5.372,11.998,11.998,11.998
	C19.615,27.996,28.977,27.996,31.996,27.996z"/>
</svg>
