<?xml version="1.0" encoding="utf-8"?>
<!-- Generator: Adobe Illustrator 13.0.2, SVG Export Plug-In . SVG Version: 6.00 Build 14948)  -->
<!DOCTYPE svg PUBLIC "-//W3C//DTD SVG 1.1 Tiny//EN" "http://www.w3.org/Graphics/SVG/1.1/DTD/svg11-tiny.dtd">
<svg version="1.1" baseProfile="tiny" id="Layer_1" xmlns="http://www.w3.org/2000/svg" xmlns:xlink="http://www.w3.org/1999/xlink"
	 x="0px" y="0px" width="45px" height="40px" viewBox="0 0 45 40" xml:space="preserve">
<path d="M40.624,29.956v0.043H40h-2.5c-0.921,0-1.667-0.746-1.667-1.667c0-0.92,0.746-1.665,1.667-1.665H40
	c0.921,0,1.666-0.747,1.666-1.667c0-0.921-0.745-1.667-1.666-1.667c-0.92,0-1.666-0.746-1.666-1.667S39.08,19.999,40,19.999
	c0.115,0,0.228,0.012,0.335,0.034C42.938,20.209,45,22.353,45,25C45,27.548,43.091,29.647,40.624,29.956z M31.666,19.999
	c-0.919,0-1.666-0.746-1.666-1.667c0-0.92,0.747-1.667,1.666-1.667c0.116,0,0.227,0.012,0.336,0.034
	c2.602,0.176,4.664,2.32,4.664,4.967c0,2.55-1.909,4.648-4.375,4.957v0.044h-0.625h-6.654c-3.344,0-9.467,0-11.679,0
	c-0.92,0-1.667,0.746-1.667,1.665c0,0.921,0.747,1.667,1.667,1.667h18.333h0.625v0.044c2.466,0.308,4.375,2.408,4.375,4.956
	c0,2.647-2.062,4.79-4.664,4.967C31.893,39.987,31.781,40,31.666,40C30.747,40,30,39.253,30,38.333c0-0.921,0.747-1.667,1.666-1.667
	c0.92,0,1.668-0.746,1.668-1.667c0-0.92-0.748-1.667-1.668-1.667H13.333h-0.625v-0.043c-2.466-0.309-4.376-2.408-4.376-4.957
	c0-0.879,0.245-1.693,0.645-2.408C3.755,24.116,0,19.169,0,13.333C0,5.969,5.969,0,13.333,0c5.004,0,9.359,2.76,11.639,6.837
	c0.554-0.095,1.114-0.171,1.695-0.171c4.913,0,8.991,3.547,9.833,8.22c-1.162-0.83-2.543-1.372-4.041-1.514
	c-1.148-2.014-3.311-3.373-5.792-3.373c-1.334,0-2.57,0.401-3.612,1.076c-1.026-4.431-4.978-7.743-9.721-7.743
	c-5.523,0-10,4.479-10,10.001c0,5.521,4.477,10,10,10c2.166,0,6.793,0,10.167,0h8.166c0.92,0,1.668-0.746,1.668-1.667
	C33.334,20.744,32.588,19.999,31.666,19.999z"/>
</svg>
