<?xml version="1.0" encoding="utf-8"?>
<!-- Generator: Adobe Illustrator 13.0.2, SVG Export Plug-In . SVG Version: 6.00 Build 14948)  -->
<!DOCTYPE svg PUBLIC "-//W3C//DTD SVG 1.1 Tiny//EN" "http://www.w3.org/Graphics/SVG/1.1/DTD/svg11-tiny.dtd">
<svg version="1.1" baseProfile="tiny" id="Layer_1" xmlns="http://www.w3.org/2000/svg" xmlns:xlink="http://www.w3.org/1999/xlink"
	 x="0px" y="0px" width="45px" height="45px" viewBox="0 0 45 45" xml:space="preserve">
<path d="M36.819,32.014v-4.48c2.44-1.418,4.089-4.052,4.089-7.078c0-4.519-3.662-8.183-8.181-8.183c-1.64,0-3.154,0.491-4.433,1.32
	c-1.261-5.438-6.11-9.503-11.931-9.503c-6.778,0-12.272,5.495-12.272,12.273c0,3.63,1.585,6.883,4.089,9.13v5.026
	C3.295,27.688,0,22.417,0,16.363C0,7.326,7.326,0,16.364,0c6.142,0,11.486,3.387,14.285,8.391c0.679-0.116,1.366-0.21,2.079-0.21
	C39.506,8.181,45,13.677,45,20.455C45,25.795,41.582,30.328,36.819,32.014z M14.318,20.455c1.129,0,2.046,0.916,2.046,2.046v4.089
	c0,1.131-0.917,2.046-2.046,2.046c-1.13,0-2.045-0.915-2.045-2.046v-4.089C12.272,21.37,13.188,20.455,14.318,20.455z
	 M14.318,32.728c1.129,0,2.046,0.916,2.046,2.046v4.089c0,1.131-0.917,2.046-2.046,2.046c-1.13,0-2.045-0.915-2.045-2.046v-4.089
	C12.272,33.643,13.188,32.728,14.318,32.728z M22.499,24.545c1.13,0,2.046,0.917,2.046,2.045v4.092c0,1.13-0.916,2.046-2.046,2.046
	c-1.129,0-2.043-0.916-2.043-2.046V26.59C20.455,25.462,21.371,24.545,22.499,24.545z M22.499,36.818
	c1.13,0,2.046,0.916,2.046,2.044v4.092c0,1.131-0.916,2.046-2.046,2.046c-1.129,0-2.043-0.915-2.043-2.046v-4.092
	C20.455,37.733,21.371,36.818,22.499,36.818z M30.682,20.455c1.129,0,2.046,0.916,2.046,2.046v4.089
	c0,1.131-0.917,2.046-2.046,2.046c-1.131,0-2.045-0.915-2.045-2.046v-4.089C28.637,21.37,29.551,20.455,30.682,20.455z
	 M30.682,32.728c1.129,0,2.046,0.916,2.046,2.046v4.089c0,1.131-0.917,2.046-2.046,2.046c-1.131,0-2.045-0.915-2.045-2.046v-4.089
	C28.637,33.643,29.551,32.728,30.682,32.728z"/>
</svg>
