<?xml version="1.0" encoding="utf-8"?>
<!-- Generator: Adobe Illustrator 13.0.2, SVG Export Plug-In . SVG Version: 6.00 Build 14948)  -->
<!DOCTYPE svg PUBLIC "-//W3C//DTD SVG 1.1 Tiny//EN" "http://www.w3.org/Graphics/SVG/1.1/DTD/svg11-tiny.dtd">
<svg version="1.1" baseProfile="tiny" id="Layer_1" xmlns="http://www.w3.org/2000/svg" xmlns:xlink="http://www.w3.org/1999/xlink"
	 x="0px" y="0px" width="45px" height="45.001px" viewBox="0 0 45 45.001" xml:space="preserve">
<path d="M32.727,32.729c-0.287,0-0.665,0-1.086,0l3.666-4.513c3.254-1.081,5.602-4.146,5.602-7.761c0-4.52-3.662-8.181-8.182-8.181
	c-1.638,0-3.153,0.491-4.432,1.32c-1.26-5.438-6.11-9.503-11.932-9.503c-6.777,0-12.272,5.495-12.272,12.273
	c0,5.571,3.715,10.269,8.801,11.767l-1.38,3.864C4.843,29.928,0,23.713,0,16.365C0,7.328,7.327,0,16.363,0
	c6.141,0,11.485,3.388,14.284,8.393c0.679-0.118,1.368-0.21,2.079-0.21C39.506,8.183,45,13.677,45,20.455
	S39.504,32.729,32.727,32.729z M20.454,18.409H30.68l-6.136,10.229h7.159L18.408,45.001l3.682-12.272h-6.75L20.454,18.409z"/>
</svg>
