<?xml version="1.0" encoding="utf-8"?>
<!-- Generator: Adobe Illustrator 13.0.2, SVG Export Plug-In . SVG Version: 6.00 Build 14948)  -->
<!DOCTYPE svg PUBLIC "-//W3C//DTD SVG 1.1 Tiny//EN" "http://www.w3.org/Graphics/SVG/1.1/DTD/svg11-tiny.dtd">
<svg version="1.1" baseProfile="tiny" id="Layer_1" xmlns="http://www.w3.org/2000/svg" xmlns:xlink="http://www.w3.org/1999/xlink"
	 x="0px" y="0px" width="50.625px" height="45px" viewBox="0 0 50.625 45" xml:space="preserve">
<path d="M48.75,24.374h-3.751c-1.035,0-1.875-0.839-1.875-1.875c0-1.034,0.84-1.873,1.875-1.873h3.751
	c1.034,0,1.875,0.839,1.875,1.873C50.625,23.535,49.784,24.374,48.75,24.374z M41.383,11.894c-0.732,0.731-1.92,0.731-2.652,0
	s-0.732-1.92,0-2.651l2.652-2.651c0.732-0.732,1.919-0.732,2.651,0c0.732,0.731,0.732,1.919,0,2.651L41.383,11.894z M38.619,26.526
	L38.619,26.526c1.641,1.955,2.631,4.473,2.631,7.224C41.25,39.962,36.213,45,30,45c-2.602,0-12.002,0-15,0C6.716,45,0,38.285,0,30
	s6.716-15,15-15c1.474,0,2.897,0.218,4.241,0.613c2.058-2.649,5.268-4.363,8.883-4.363c6.214,0,11.251,5.037,11.251,11.249
	C39.373,23.92,39.1,25.275,38.619,26.526z M3.75,30c0,6.214,5.036,11.25,11.25,11.25c3.391,0,12.169,0,15.001,0
	c4.142,0,7.498-3.359,7.498-7.5c0-4.142-3.356-7.5-7.498-7.5c-1.502,0-2.893,0.452-4.064,1.21c-1.153-4.983-5.601-8.71-10.937-8.71
	C8.785,18.75,3.75,23.786,3.75,30z M28.124,15c-2.075,0-3.952,0.843-5.309,2.203c2.194,1.346,4.018,3.237,5.277,5.488
	c0.623-0.106,1.254-0.192,1.907-0.192c1.992,0,3.861,0.524,5.484,1.432l0,0c0.09-0.463,0.141-0.94,0.141-1.432
	C35.625,18.358,32.267,15,28.124,15z M28.124,7.499c-1.036,0-1.875-0.839-1.875-1.873V1.875C26.249,0.84,27.09,0,28.124,0
	C29.16,0,30,0.84,30,1.875v3.751C30,6.661,29.16,7.499,28.124,7.499z M14.866,11.894l-2.651-2.651c-0.732-0.732-0.732-1.92,0-2.651
	c0.731-0.732,1.919-0.732,2.651,0l2.651,2.651c0.733,0.731,0.733,1.92,0,2.651C16.786,12.625,15.598,12.625,14.866,11.894z"/>
</svg>
