<?xml version="1.0" encoding="utf-8"?>
<!-- Generator: Adobe Illustrator 13.0.2, SVG Export Plug-In . SVG Version: 6.00 Build 14948)  -->
<!DOCTYPE svg PUBLIC "-//W3C//DTD SVG 1.1//EN" "http://www.w3.org/Graphics/SVG/1.1/DTD/svg11.dtd">
<svg version="1.1" id="Layer_1" xmlns="http://www.w3.org/2000/svg" xmlns:xlink="http://www.w3.org/1999/xlink" x="0px" y="0px"
	 width="49.75px" height="49.75px" viewBox="-5.5 44.5 49.75 49.75" enable-background="new -5.5 44.5 49.75 49.75"
	 xml:space="preserve">
<path d="M20.001,90C8.955,90,0,81.045,0,70.001C0,58.955,8.955,50,20.001,50c1.259,0,2.485,0.13,3.679,0.354
	c-0.22,0.96-0.347,1.955-0.347,2.979c0,7.365,5.972,13.334,13.335,13.334c1.023,0,2.02-0.127,2.98-0.347
	C39.869,67.515,40,68.74,40,70.001C40,81.045,31.045,90,20.001,90z M17.021,57.013C11.093,58.367,6.667,63.66,6.667,70.001
	c0,7.362,5.969,13.333,13.333,13.333c6.337,0,11.632-4.426,12.986-10.354C24.896,71.475,18.526,65.103,17.021,57.013z"/>
<rect x="-5.5" y="44.5" fill="none" stroke="#000000" width="50" height="50"/>
</svg>
