<?xml version="1.0" encoding="utf-8"?>
<!-- Generator: Adobe Illustrator 13.0.2, SVG Export Plug-In . SVG Version: 6.00 Build 14948)  -->
<!DOCTYPE svg PUBLIC "-//W3C//DTD SVG 1.1 Tiny//EN" "http://www.w3.org/Graphics/SVG/1.1/DTD/svg11-tiny.dtd">
<svg version="1.1" baseProfile="tiny" id="Layer_1" xmlns="http://www.w3.org/2000/svg" xmlns:xlink="http://www.w3.org/1999/xlink"
	 x="0px" y="0px" width="40px" height="44.234px" viewBox="0 0 40 44.234" xml:space="preserve">
<g>
	<path d="M40,20.699c-0.034-5.003-1.783-9.723-4.925-13.297c-3.28-3.729-7.679-5.785-12.382-5.785
		c-3.853,0-7.497,1.372-10.539,3.966c-2.274,1.939-4.05,4.428-5.218,7.283c-1.533,0.491-2.935,1.353-4.089,2.534
		C1.012,17.277,0,19.76,0,22.388c0,5.515,4.485,9.999,9.999,9.999h18.463C34.824,32.387,40,27.211,40,20.848
		C40,20.8,40,20.748,40,20.699z M28.462,28.541L28.462,28.541H10c-3.399,0-6.154-2.756-6.154-6.152c0-3.348,2.673-6.067,6.001-6.15
		c1.714-6.243,6.816-10.772,12.846-10.772c7.41,0,13.42,6.843,13.459,15.301c0.002,0.026,0.002,0.056,0.002,0.084
		C36.154,25.096,32.71,28.541,28.462,28.541z"/>
	<path d="M19.321,34.513c-0.949-0.476-2.105-0.09-2.579,0.86l-3.846,7.693c-0.475,0.949-0.09,2.104,0.859,2.58
		c0.277,0.138,0.568,0.203,0.858,0.203c0.706,0,1.386-0.39,1.723-1.064l3.847-7.69C20.658,36.144,20.273,34.989,19.321,34.513z"/>
	<path d="M26.984,34.5c-0.959-0.459-2.108-0.055-2.565,0.902l-1.538,3.211c-0.459,0.958-0.055,2.106,0.903,2.566
		c0.269,0.127,0.552,0.188,0.829,0.188c0.718,0,1.406-0.401,1.736-1.092l1.539-3.211C28.35,36.107,27.943,34.959,26.984,34.5z"/>
	<path d="M11.6,34.5c-0.956-0.459-2.105-0.055-2.565,0.902l-1.537,3.211c-0.46,0.958-0.055,2.106,0.903,2.566
		c0.269,0.127,0.552,0.188,0.829,0.188c0.718,0,1.405-0.401,1.735-1.092l1.539-3.211C12.962,36.107,12.559,34.959,11.6,34.5z"/>
</g>
</svg>
