<?xml version="1.0" encoding="utf-8"?>
<!-- Generator: Adobe Illustrator 13.0.2, SVG Export Plug-In . SVG Version: 6.00 Build 14948)  -->
<svg version="1.2" baseProfile="tiny" id="Layer_1" xmlns="http://www.w3.org/2000/svg" xmlns:xlink="http://www.w3.org/1999/xlink"
	 x="0px" y="0px" width="41.3px" height="41.7px" viewBox="0 0 41.3 41.7" xml:space="preserve">
<g>
	<path d="M41.3,21c0,0.9-0.7,1.7-1.7,1.7h-3.3c-0.9,0-1.7-0.7-1.7-1.7v0c0-0.9,0.7-1.7,1.7-1.7h3.3C40.6,19.3,41.3,20.1,41.3,21
		L41.3,21z"/>
	<path d="M6.7,21c0,0.9-0.7,1.7-1.7,1.7H1.7C0.7,22.7,0,21.9,0,21v0c0-0.9,0.7-1.7,1.7-1.7H5C5.9,19.3,6.7,20.1,6.7,21L6.7,21z"/>
	<path d="M20.3,35c0.9,0,1.7,0.7,1.7,1.7V40c0,0.9-0.7,1.7-1.7,1.7h0c-0.9,0-1.7-0.7-1.7-1.7v-3.3C18.7,35.7,19.4,35,20.3,35
		L20.3,35z"/>
	<path d="M21,0c0.9,0,1.7,0.7,1.7,1.7V5c0,0.9-0.7,1.7-1.7,1.7h0c-0.9,0-1.7-0.7-1.7-1.7V1.7C19.3,0.7,20.1,0,21,0L21,0z"/>
	<path d="M5,4.3c0.6-0.6,1.7-0.6,2.3,0l2.4,2.4c0.6,0.6,0.6,1.7,0,2.3l0,0C9,9.7,8,9.7,7.3,9L5,6.7C4.3,6,4.3,5,5,4.3L5,4.3z"/>
	<path d="M31.5,31.5c0.6-0.6,1.7-0.6,2.3,0l2.4,2.4c0.6,0.6,0.6,1.7,0,2.3l0,0c-0.6,0.6-1.7,0.6-2.3,0l-2.4-2.4
		C30.8,33.2,30.8,32.1,31.5,31.5L31.5,31.5z"/>
	<path d="M4.6,35.9c-0.6-0.6-0.6-1.7,0-2.3L7,31.1c0.6-0.6,1.7-0.6,2.3,0l0,0c0.6,0.6,0.6,1.7,0,2.3L7,35.9
		C6.3,36.5,5.3,36.5,4.6,35.9L4.6,35.9z"/>
	<path d="M31.8,9.4c-0.6-0.6-0.6-1.7,0-2.3l2.4-2.4c0.6-0.6,1.7-0.6,2.3,0l0,0c0.6,0.6,0.6,1.7,0,2.3l-2.4,2.4
		C33.5,10,32.5,10,31.8,9.4L31.8,9.4z"/>
	<circle cx="21" cy="20" r="10"/>
	<circle fill="#FFFFFF" cx="20.9" cy="20.3" r="6.2"/>
</g>
</svg>
